#!OML:ASF H:\Terrain\Patient Classification 1\Walking\steve\steve.ASF
:FULLY-SPECIFIED
:DEGREES
153
root 7.8419 16.2952 4.23802 7.32757 -10.675 -6.27588
lowerback 0.680385 4.63549 8.09889
upperback -3.00599 6.41971 1.46402
thorax -2.79272 3.01618 -3.14211
lowerneck -8.41165 -0.96617 -2.17388
upperneck 13.7838 -1.42748 2.89989
head 5.57627 -0.60127 1.16282
rclavicle 4.16236e-014 1.98785e-014
rhumerus -17.8505 6.62315 -84.9161
rradius 62.2518
rwrist -5.12093
rhand 177.34 -69.1611
rfingers 7.12502
rthumb -156.959 -40.5184
lclavicle 4.16236e-014 1.98785e-014
lhumerus -61.5358 20.6674 62.8648
lradius 9.48643
lwrist -24.7956
lhand -17.3408 -14.4878
lfingers 7.12502
lthumb 8.90651 15.3043
rfemur 4.1634 -3.53403 28.0526
rtibia 17.1157
rfoot -5.57236 27.0492
rtoes 18.6617
lfemur -37.4091 0.161586 -9.14131
ltibia 18.473
lfoot -20.1357 11.8042
ltoes -13.5302
154
root 7.85663 16.2761 4.48207 7.73364 -11.2851 -6.60881
lowerback 0.533794 4.8257 8.37148
upperback -3.21065 6.67614 1.46559
thorax -2.86853 3.12836 -3.28508
lowerneck -7.97688 -0.929772 -2.12731
upperneck 13.442 -1.38066 2.87383
head 5.39367 -0.582689 1.15087
rclavicle 2.30874e-014 1.39149e-014
rhumerus -17.288 7.03974 -84.6532
rradius 63.4193
rwrist -4.59673
rhand 177.95 -68.6058
rfingers 7.12502
rthumb -156.374 -40.0373
lclavicle 2.30874e-014 1.39149e-014
lhumerus -62.9844 20.2576 62.107
lradius 9.5449
lwrist -23.942
lhand -18.6435 -14.9682
lfingers 7.12502
lthumb 7.64924 14.8734
rfemur 5.26792 -3.42318 27.9598
rtibia 15.8571
rfoot -3.9966 27.3116
rtoes 20.0335
lfemur -37.9202 -0.474831 -7.96488
ltibia 16.9588
lfoot -20.9712 12.2335
ltoes -11.3522
155
root 7.86853 16.2484 4.72445 8.02394 -11.8398 -6.48389
lowerback 0.358787 5.00288 8.11691
upperback -3.28636 6.88973 1.33782
thorax -2.83622 3.23995 -3.26514
lowerneck -7.96072 -0.914505 -2.00098
upperneck 13.181 -1.36744 2.84256
head 5.30849 -0.573304 1.12072
rclavicle 4.54875e-015 3.63776e-014
rhumerus -16.3818 7.53426 -84.4113
rradius 64.2828
rwrist -4.62002
rhand 177.955 -68.5631
rfingers 7.12502
rthumb -156.37 -39.9952
lclavicle 4.54875e-015 3.63776e-014
lhumerus -64.0657 19.9395 61.5034
lradius 9.59761
lwrist -23.3823
lhand -17.9767 -14.6536
lfingers 7.12502
lthumb 8.29279 15.1636
rfemur 6.29152 -3.06107 27.4624
rtibia 14.8421
rfoot -3.03803 27.359
rtoes 17.727
lfemur -38.3955 -0.646425 -7.66795
ltibia 15.7256
lfoot -20.8271 12.6228
ltoes -14.6954
156
root 7.88291 16.2367 4.97646 8.29866 -12.0299 -5.62444
lowerback -0.0577937 5.07447 7.22481
upperback -3.36979 6.92502 0.999621
thorax -2.73928 3.28047 -3.09267
lowerneck -8.16953 -0.966184 -1.99437
upperneck 13.0219 -1.44318 2.92193
head 5.29711 -0.603662 1.13815
rclavicle 8.55721e-014 1.74931e-014
rhumerus -15.7735 7.89093 -84.159
rradius 65.2793
rwrist -4.56087
rhand 177.558 -68.7727
rfingers 7.12502
rthumb -156.751 -40.1562
lclavicle 8.55721e-014 1.74931e-014
lhumerus -64.8751 19.6103 61.0025
lradius 9.21862
lwrist -22.9258
lhand -17.1611 -14.2337
lfingers 7.12502
lthumb 9.07987 15.5509
rfemur 7.14079 -3.08488 26.1127
rtibia 14.211
rfoot -2.56437 27.643
rtoes 14.351
lfemur -38.8831 -0.0642863 -9.0382
ltibia 14.5264
lfoot -19.1204 12.7322
ltoes -20.3496
157
root 7.89104 16.199 5.22532 8.34502 -13.0105 -6.52245
lowerback 0.330903 5.43478 7.91426
upperback -3.35152 7.45746 1.15857
thorax -2.82493 3.52547 -3.3374
lowerneck -8.54839 -1.04595 -2.15577
upperneck 13.1997 -1.56937 3.21821
head 5.42364 -0.648835 1.24747
rclavicle -4.66973e-014 5.96354e-016
rhumerus -15.2396 8.17688 -83.8505
rradius 65.9896
rwrist -4.09383
rhand 177.424 -68.5666
rfingers 7.12502
rthumb -156.879 -39.9339
lclavicle -4.66973e-014 5.96354e-016
lhumerus -65.6417 19.2887 60.552
lradius 8.74222
lwrist -22.6278
lhand -17.5086 -13.9244
lfingers 7.12502
lthumb 8.74459 15.8744
rfemur 8.52078 -1.25712 26.8808
rtibia 13.604
rfoot -2.69107 26.7723
rtoes 14.0354
lfemur -38.5645 0.916752 -8.1732
ltibia 13.7483
lfoot -17.8578 13.2166
ltoes -23.2692
158
root 7.90789 16.1699 5.47554 8.47739 -12.8231 -6.21557
lowerback 0.142086 5.38332 7.64723
upperback -3.39584 7.36356 0.984078
thorax -2.78325 3.48503 -3.3553
lowerneck -9.02764 -1.07838 -2.22736
upperneck 13.4958 -1.6429 3.4911
head 5.60263 -0.663 1.33863
rclavicle 3.28111e-014 3.27995e-015
rhumerus -14.7247 8.61937 -83.5178
rradius 66.6803
rwrist -3.92124
rhand 177.503 -67.7351
rfingers 7.12502
rthumb -156.803 -39.112
lclavicle 3.28111e-014 3.27995e-015
lhumerus -66.6509 19.0117 60.0962
lradius 8.90155
lwrist -22.3922
lhand -17.6693 -13.1584
lfingers 7.12502
lthumb 8.58946 16.6469
rfemur 9.58625 -1.39758 26.2235
rtibia 12.9717
rfoot -1.66874 26.5981
rtoes 15.819
lfemur -38.9643 1.9652 -9.48337
ltibia 13.4632
lfoot -16.5425 11.3609
ltoes -24.8093
159
root 7.92163 16.1382 5.73616 8.65971 -12.8679 -6.33593
lowerback -0.0319978 5.43364 7.70138
upperback -3.44874 7.41551 0.902854
thorax -2.71811 3.51015 -3.45141
lowerneck -9.31216 -1.18764 -2.23892
upperneck 13.5451 -1.81432 3.677
head 5.67373 -0.730594 1.38512
rclavicle -7.33873e-015 -1.36167e-014
rhumerus -14.4956 8.7882 -83.2095
rradius 67.4173
rwrist -3.43538
rhand 178.264 -67.2651
rfingers 7.12502
rthumb -156.074 -38.7357
lclavicle -7.33873e-015 -1.36167e-014
lhumerus -67.4696 18.676 59.5986
lradius 8.98549
lwrist -22.0596
lhand -17.1746 -12.2095
lfingers 7.12502
lthumb 9.06687 17.5756
rfemur 10.4654 -1.24445 26.0459
rtibia 12.5569
rfoot -0.193693 26.4183
rtoes 15.5765
lfemur -39.1714 1.86989 -9.4324
ltibia 13.6911
lfoot -16.977 9.86884
ltoes -21.005
160
root 7.93245 16.1007 6.00507 8.54075 -13.1068 -6.24218
lowerback 0.0120071 5.49978 7.4222
upperback -3.45782 7.50149 0.802567
thorax -2.76194 3.55766 -3.40831
lowerneck -9.43863 -1.30681 -2.25341
upperneck 13.5938 -2.01055 3.92264
head 5.71943 -0.807354 1.44934
rclavicle -4.9563e-014 -3.08613e-014
rhumerus -14.5504 8.80325 -83.1641
rradius 68.1454
rwrist -3.14356
rhand 178.12 -67.9229
rfingers 7.12502
rthumb -156.211 -39.3756
lclavicle -4.9563e-014 -3.08613e-014
lhumerus -67.9761 18.4105 59.0678
lradius 8.68882
lwrist -21.9595
lhand -17.1904 -12.3074
lfingers 7.12502
lthumb 9.05162 17.4784
rfemur 11.3995 -0.673001 25.6976
rtibia 12.7918
rfoot 0.667816 26.1355
rtoes 15.0928
lfemur -38.8705 1.91664 -9.75471
ltibia 13.9925
lfoot -16.9974 8.68539
ltoes -16.4199
161
root 7.93954 16.0606 6.26806 8.19212 -13.2021 -5.69604
lowerback 0.147092 5.48786 6.63813
upperback -3.41556 7.47759 0.622315
thorax -2.86424 3.56241 -3.18296
lowerneck -9.58804 -1.33062 -2.17204
upperneck 13.7093 -2.09331 4.16065
head 5.78573 -0.823344 1.50425
rclavicle -1.91689e-015 3.27995e-015
rhumerus -14.7215 8.64055 -83.1285
rradius 68.8427
rwrist -2.62029
rhand 178.159 -67.7807
rfingers 7.12502
rthumb -156.174 -39.2382
lclavicle -1.91689e-015 3.27995e-015
lhumerus -68.4258 18.2325 58.5978
lradius 8.32083
lwrist -22.2103
lhand -17.5335 -12.9036
lfingers 7.12502
lthumb 8.72049 16.8963
rfemur 12.5015 0.266605 25.0719
rtibia 13.0625
rfoot 0.778253 25.1345
rtoes 13.5081
lfemur -38.7969 2.56068 -11.1444
ltibia 15.1806
lfoot -16.0863 7.69791
ltoes -16.7518
162
root 7.94367 16.0216 6.54097 7.83038 -13.1387 -5.10723
lowerback 0.12133 5.47938 5.83291
upperback -3.32925 7.44105 0.432165
thorax -2.83324 3.56694 -2.93498
lowerneck -9.8732 -1.37999 -2.07276
upperneck 13.8157 -2.20233 4.32945
head 5.87279 -0.854205 1.53166
rclavicle 4.45504e-014 -7.58488e-015
rhumerus -15.025 8.57575 -82.9652
rradius 69.6086
rwrist -2.65405
rhand 177.992 -67.8679
rfingers 7.12502
rthumb -156.334 -39.3046
lclavicle 4.45504e-014 -7.58488e-015
lhumerus -68.7688 17.9946 58.2489
lradius 7.9308
lwrist -22.3251
lhand -17.3239 -12.4347
lfingers 7.12502
lthumb 8.92281 17.3566
rfemur 13.5071 1.12429 24.4589
rtibia 13.4853
rfoot 1.06406 24.0752
rtoes 11.6218
lfemur -38.9117 3.347 -12.7621
ltibia 17.0465
lfoot -15.1892 6.58688
ltoes -17.304
163
root 7.94575 15.9591 6.82364 7.65063 -13.1811 -5.06779
lowerback 0.0294102 5.57286 5.58425
upperback -3.29608 7.55156 0.358253
thorax -2.75738 3.63113 -2.86386
lowerneck -10.0136 -1.50166 -2.21125
upperneck 13.7709 -2.39966 4.70303
head 5.89577 -0.927915 1.65597
rclavicle 6.28211e-014 2.33572e-014
rhumerus -15.6405 8.31062 -82.7927
rradius 70.4336
rwrist -2.57371
rhand 178.136 -68.795
rfingers 7.12502
rthumb -156.196 -40.2497
lclavicle 6.28211e-014 2.33572e-014
lhumerus -68.907 17.7492 57.9895
lradius 7.51285
lwrist -22.3985
lhand -16.3892 -11.2626
lfingers 7.12502
lthumb 9.82468 18.4882
rfemur 14.2249 1.80803 24.3562
rtibia 14.6967
rfoot 2.71215 23.609
rtoes 14.361
lfemur -38.9886 4.32029 -13.7909
ltibia 18.9344
lfoot -13.8909 5.68657
ltoes -14.9167
164
root 7.95018 15.9067 7.09737 7.7035 -13.1716 -5.4551
lowerback 0.0700727 5.65927 5.75801
upperback -3.44337 7.67922 0.368673
thorax -2.90273 3.68293 -2.96085
lowerneck -9.96492 -1.61955 -2.25172
upperneck 13.7441 -2.60029 5.01041
head 5.89105 -1.0054 1.74378
rclavicle 7.14142e-014 4.67144e-015
rhumerus -16.8529 8.05487 -82.7112
rradius 71.5837
rwrist -2.81643
rhand 177.92 -69.0878
rfingers 7.12502
rthumb -156.403 -40.5156
lclavicle 7.14142e-014 4.67144e-015
lhumerus -69.1347 17.4528 57.6612
lradius 7.27164
lwrist -22.6487
lhand -15.4061 -10.9745
lfingers 7.12502
lthumb 10.7731 18.7292
rfemur 15.0993 2.59722 24.755
rtibia 15.1121
rfoot 6.12008 22.0541
rtoes 19.5161
lfemur -39.6149 5.05852 -14.1703
ltibia 21.4979
lfoot -12.0072 5.83395
ltoes -12.2181
165
root 7.95254 15.9479 7.36017 7.75218 -12.8962 -5.66382
lowerback 0.342247 5.60472 5.67489
upperback -3.6715 7.63429 0.356825
thorax -3.30621 3.64507 -2.97424
lowerneck -10.2065 -1.72091 -2.06809
upperneck 14.1027 -2.79702 5.10784
head 6.05247 -1.0758 1.72805
rclavicle -4.57616e-014 -9.54166e-015
rhumerus -18.1831 7.81913 -82.8087
rradius 72.657
rwrist -3.24026
rhand 177.327 -68.4325
rfingers 7.12502
rthumb -156.972 -39.7882
lclavicle -4.57616e-014 -9.54166e-015
lhumerus -69.3574 17.2405 57.2665
lradius 6.99518
lwrist -22.722
lhand -15.6819 -11.44
lfingers 7.12502
lthumb 10.5071 18.2774
rfemur 15.1976 3.87219 25.2416
rtibia 15.7918
rfoot 5.89869 20.2391
rtoes 11.6781
lfemur -40.3153 4.90489 -14.1832
ltibia 23.9439
lfoot -9.68274 7.19206
ltoes -11.5379
166
root 7.9697 15.9477 7.68054 7.74874 -12.8049 -5.41921
lowerback -0.39774 5.63208 5.45078
upperback -3.60411 7.60613 0.154804
thorax -2.82262 3.65264 -2.97182
lowerneck -10.5908 -1.82922 -2.14249
upperneck 14.4015 -3.02923 5.64413
head 6.23208 -1.14045 1.89023
rclavicle -1.32605e-013 -2.24627e-014
rhumerus -18.9783 7.34335 -83.0119
rradius 73.076
rwrist -3.36853
rhand 177.256 -68.1393
rfingers 7.12502
rthumb -157.041 -39.4865
lclavicle -1.32605e-013 -2.24627e-014
lhumerus -69.0256 17.3098 56.9648
lradius 6.05686
lwrist -22.5889
lhand -16.9212 -11.7851
lfingers 7.12502
lthumb 9.3114 17.9892
rfemur 15.3299 4.26789 24.8257
rtibia 17.3336
rfoot 8.48088 18.8377
rtoes 16.6199
lfemur -40.8083 4.2699 -14.3434
ltibia 26.1398
lfoot -8.09641 8.02557
ltoes -11.1351
167
root 7.98227 15.948 7.98113 7.94968 -12.6972 -5.22521
lowerback -1.08747 5.65958 5.163
upperback -3.64675 7.59113 -0.0397368
thorax -2.4907 3.66064 -2.94076
lowerneck -10.9493 -1.99597 -2.31273
upperneck 14.6414 -3.34422 6.29374
head 6.39812 -1.24051 2.09745
rclavicle 5.87797e-014 6.16232e-015
rhumerus -19.7617 6.80582 -83.1849
rradius 73.198
rwrist -3.06563
rhand 178.092 -68.0835
rfingers 7.12502
rthumb -156.239 -39.5326
lclavicle 5.87797e-014 6.16232e-015
lhumerus -68.502 17.4549 56.7038
lradius 5.02923
lwrist -22.7494
lhand -17.1841 -11.0343
lfingers 7.12502
lthumb 9.05765 18.7513
rfemur 14.39 4.79011 24.5638
rtibia 20.3227
rfoot 8.83416 18.1525
rtoes 11.1277
lfemur -41.196 3.9193 -14.5487
ltibia 27.6896
lfoot -6.87603 7.81375
ltoes -6.4904
